<?xml version="1.0" encoding="UTF-8" standalone="no"?>
<svg width="168px" height="72px" viewBox="0 0 168 72" version="1.1" xmlns="http://www.w3.org/2000/svg" xmlns:xlink="http://www.w3.org/1999/xlink">
    <!-- Generator: Sketch 39.1 (31720) - http://www.bohemiancoding.com/sketch -->
    <title>sassme-logo</title>
    <desc>Created with Sketch.</desc>
    <defs></defs>
    <g id="Page-1" stroke="none" stroke-width="1" fill="none" fill-rule="evenodd">
        <g id="sassme-logo">
            <path d="M130.46,60 L130.46,12.19 L130.18,12.19 L108.27,60 L107.01,60 L85.17,12.19 L84.96,12.19 L84.96,38.7864985 L83.42,38.516601 L83.42,10.44 L86.15,10.44 L107.71,57.76 L129.27,10.44 L132,10.44 L132,60 L130.46,60 Z M83.42,60.020752 L83.42,46.6123663 L84.96,47.0394287 L84.96,60.020752 L83.42,60.020752 Z M139.3,43.55 C139.3,45.5100098 139.591664,47.4466571 140.175,49.36 C140.758336,51.2733429 141.644994,52.9883258 142.835,54.505 C144.025006,56.0216742 145.529991,57.246662 147.35,58.18 C149.170009,59.113338 151.316654,59.58 153.79,59.58 C156.310013,59.58 158.54999,59.0783383 160.51,58.075 C162.47001,57.0716617 164.173326,55.6133429 165.62,53.7 L166.74,54.68 C165.153325,56.7333436 163.298344,58.2966613 161.175,59.37 C159.051656,60.4433387 156.590014,60.98 153.79,60.98 C151.409988,60.98 149.24001,60.5483377 147.28,59.685 C145.31999,58.8216623 143.62834,57.6200077 142.205,56.08 C140.78166,54.5399923 139.685004,52.6966774 138.915,50.55 C138.144996,48.4033226 137.76,46.0700126 137.76,43.55 C137.76,41.1233212 138.156663,38.8833436 138.95,36.83 C139.743337,34.7766564 140.828326,33.0033408 142.205,31.51 C143.581674,30.0166592 145.203324,28.8616708 147.07,28.045 C148.936676,27.2283293 150.943323,26.82 153.09,26.82 C155.610013,26.82 157.803324,27.2633289 159.67,28.15 C161.536676,29.0366711 163.088327,30.2033261 164.325,31.65 C165.561673,33.0966739 166.48333,34.7416574 167.09,36.585 C167.69667,38.4283426 168,40.3066571 168,42.22 L168,43.55 L139.3,43.55 Z M166.53,42.22 C166.483333,40.1199895 166.12167,38.2066753 165.445,36.48 C164.76833,34.7533247 163.846672,33.2716729 162.68,32.035 C161.513327,30.7983271 160.113341,29.8416701 158.48,29.165 C156.846658,28.4883299 155.026677,28.15 153.02,28.15 C150.593321,28.15 148.516675,28.6516616 146.79,29.655 C145.063325,30.6583384 143.651672,31.8949927 142.555,33.365 C141.458328,34.8350074 140.653336,36.3749919 140.14,37.985 C139.626664,39.595008 139.37,41.0066606 139.37,42.22 L166.53,42.22 Z" id="Me" fill="#808C99"></path>
            <path d="M67.1717513,53.8112809 C66.8703297,53.5967478 66.920451,52.9033741 67.9117778,50.7438219 C68.300955,49.8959219 69.1889174,48.4684184 70.7326191,47.1042168 C70.9114256,47.6652634 71.0205132,48.2032437 71.0173914,48.7041099 C70.997447,52.0454152 68.6134761,53.2932451 67.1717513,53.8112809 L67.1717513,53.8112809 Z M54.4822143,56.7039224 C54.078122,56.9153337 53.7076752,57.0481812 53.5354591,56.945684 C53.4092019,56.8702419 53.7021255,56.5918865 53.7021255,56.5918865 C53.7021255,56.5918865 55.762649,54.3754492 56.5741287,53.3660857 C57.0462056,52.7791981 57.5935511,52.0825292 58.1899774,51.3033076 C58.1948334,51.3811777 58.1974349,51.4583541 58.1974349,51.5346634 C58.1913648,54.1902258 55.6261595,55.9831467 54.4822143,56.7039224 L54.4822143,56.7039224 Z M38.0101657,48.8444149 C37.0569936,51.1682055 35.0620266,57.1132175 33.8478421,56.7946263 C32.8055269,56.521127 32.1707726,52.0018842 33.6397259,47.5542681 C34.3790587,45.3154583 35.958487,42.6402982 36.8863383,41.6019719 C38.3800922,39.9311459 40.0247303,39.3846675 40.4243133,40.0620857 C40.9336777,40.9252475 38.607806,47.3877751 38.0101657,48.8444149 L38.0101657,48.8444149 Z M18.0726359,62.3983278 C15.3359081,65.3839278 11.5124671,66.5122644 9.87285846,65.5618672 C8.10248351,64.5353341 8.8036616,60.1399205 12.1621364,56.9716985 C14.2091325,55.0409007 16.8516876,53.2625479 18.6047196,52.1671631 C19.0036089,51.9271358 19.5898028,51.5745523 20.3020804,51.1477407 C20.4201863,51.0804498 20.4867835,51.0431623 20.4867835,51.0431623 L20.4841821,51.0386532 C20.6217122,50.9564473 20.7625375,50.8719868 20.9080453,50.7850983 C22.1300342,55.294629 20.9451594,59.2647919 18.0726359,62.3983278 L18.0726359,62.3983278 Z M81.7579205,40.9280224 C78.4376003,40.9455388 75.5617816,41.7426238 73.1511025,42.9307937 C72.2693837,41.1711715 71.3770856,39.623134 71.2272419,38.4720781 C71.0522509,37.1283413 70.849511,36.3267471 71.060749,34.7259869 C71.2721603,33.1252266 72.1982773,30.8584946 72.1847498,30.6887065 C72.1712222,30.5189183 71.9769804,29.7034498 70.0619647,29.6895754 C68.1467756,29.6758744 66.5085544,30.057941 66.3158735,30.5636633 C66.1230192,31.0693856 65.7543067,32.2074343 65.5248586,33.3940433 C65.1894447,35.1305994 61.7012442,41.32379 59.7206719,44.563812 C59.0729103,43.2993328 58.5220961,42.1843504 58.4072854,41.3026315 C58.2324678,39.9588947 58.0295545,39.1573006 58.2407924,37.5563669 C58.4522038,35.9557801 59.3783208,33.6887012 59.3647932,33.518913 C59.3512657,33.3491249 59.1571973,32.5338298 57.2420082,32.5199554 C55.3268191,32.5062544 53.6885979,32.888321 53.495917,33.3940433 C53.3030627,33.8997656 53.0972011,35.0813452 52.7049021,36.2244234 C52.3126031,37.3676749 47.6757747,47.6987354 46.4614168,50.3764969 C45.842618,51.7408718 45.3041174,52.8369504 44.9239585,53.5856483 C44.9229179,53.5837406 44.9215305,53.581486 44.9215305,53.581486 C44.9215305,53.581486 44.8981174,53.6312604 44.8577082,53.7153741 C44.5323532,54.3525564 44.3386318,54.7051399 44.3386318,54.7051399 C44.3386318,54.7051399 44.3407129,54.709996 44.344355,54.7183206 C44.0862909,55.1862351 43.8096698,55.6208511 43.67266,55.6208511 C43.5769266,55.6208511 43.3852862,54.3752758 43.7144567,52.6656014 C44.4043618,49.0818408 46.0618337,43.4928809 46.0453579,43.3003734 C46.0366863,43.2016916 46.3533698,42.2278814 44.9629803,41.7186904 C43.6114392,41.2240677 43.1301705,42.0490749 43.0068617,42.0516763 C42.8873683,42.0542778 42.7985721,42.3432124 42.7985721,42.3432124 C42.7985721,42.3432124 44.3042926,36.0581038 39.9265688,36.0581038 C37.1896676,36.0581038 33.3972706,39.0520285 31.529081,41.7658634 C30.3501029,42.4089424 27.8272145,43.7861512 25.1504936,45.2568389 C24.1223997,45.8215274 23.0733207,46.3988764 22.0785254,46.9469157 C22.0108877,46.8719939 21.9434233,46.7968986 21.8738778,46.7226705 C16.5657013,41.059309 6.7528501,37.0535929 7.16908246,29.439836 C7.32048698,26.6718908 8.28267744,19.3836623 26.0245816,10.542887 C40.558028,3.30079092 52.1927629,5.29367675 54.203512,9.71042233 C57.0758621,16.0203314 47.9853475,27.7480249 32.892242,29.439836 C27.1416452,30.0844758 24.1137282,27.8558984 23.3605211,27.0256883 C22.5677719,26.1519472 22.4494925,26.1125786 22.1534472,26.2764701 C21.6713114,26.5437259 21.9768954,27.3151432 22.1534472,27.7749065 C22.6041922,28.9478146 24.4533044,31.027589 27.6060911,32.0620998 C30.379586,32.9722612 37.1312217,33.4722603 45.2959662,30.3139239 C54.4409379,26.7766426 61.5817508,16.9365629 59.4842866,8.71146468 C57.3512692,0.346061493 43.4808463,-2.40402036 30.3533981,2.25986318 C22.5405433,5.03543926 14.0828753,9.39183115 8.0017206,15.0798197 C0.77107087,21.8430752 -0.381892753,27.7294678 0.093132422,30.1890542 C1.78130148,38.9283728 13.8268924,44.6194831 18.6505051,48.8373043 C18.4123855,48.9685909 18.1891809,49.0918997 17.9860942,49.2039356 C15.5677842,50.4002568 6.38569848,55.2054859 4.08896303,60.2826535 C1.48386878,66.0417484 4.50380794,70.1737217 6.50311069,70.7300856 C12.6978621,72.4538078 19.0545974,69.3533971 22.4708244,64.2578459 C25.8863577,59.1635087 25.4692582,52.5301524 23.9016231,49.5022355 C23.882199,49.4646011 23.8606936,49.4278339 23.8407492,49.3905465 C24.4650977,49.0209668 25.1019332,48.6451437 25.7330455,48.2745235 C26.9638793,47.55184 28.1719937,46.8775436 29.2205523,46.3069584 C28.6340116,47.9144825 28.2042517,49.8412914 27.9807002,52.6239781 C27.718127,55.8931364 29.0578749,60.118762 30.8110802,61.7812634 C31.5830178,62.5131386 32.5117363,62.5303082 33.1003582,62.5303082 C35.140417,62.5303082 36.07139,60.8331208 37.0961888,58.8258402 C38.3533839,56.3639993 39.4687132,53.4980661 39.4687132,53.4980661 C39.4687132,53.4980661 38.0687851,61.2399879 41.8830343,61.2399879 C43.2727301,61.2399879 44.6707505,59.4378752 45.2933647,58.5190423 C45.295099,58.5291012 45.2959662,58.5344776 45.2959662,58.5344776 C45.2959662,58.5344776 45.3322131,58.4746442 45.4029726,58.3546305 C45.5472665,58.1340274 45.6289521,57.993549 45.6289521,57.993549 C45.6289521,57.993549 45.6317269,57.9789808 45.6362361,57.95366 C46.1948546,56.9836652 47.4338396,54.7722574 49.2919702,51.1255417 C51.6925903,46.4139648 53.9952224,40.5116166 53.9952224,40.5116166 C53.9952224,40.5116166 54.2094086,41.9547289 54.9109336,44.3409543 C55.3236973,45.7450448 56.2005602,47.2970711 56.892373,48.7854487 C56.3354888,49.55808 55.9931377,50.0018877 55.9931377,50.0018877 C55.9931377,50.0018877 55.9964329,50.010039 56.0025029,50.0249539 C55.5574812,50.615657 55.0585226,51.2531863 54.5364979,51.8747599 C52.6417735,54.131433 50.384927,56.7084316 50.0826383,57.4522735 C49.7267596,58.328616 49.8108732,58.9732559 50.4988706,59.491812 C51.0014712,59.8705834 51.8961973,59.9293763 52.8297718,59.8664211 C54.532509,59.7519572 55.7305645,59.3296548 56.3216144,59.0724579 C57.2430488,58.7465827 58.3160611,58.2340966 59.32317,57.4938967 C61.1818209,56.1274406 62.3028734,54.1727094 62.1951732,51.5833973 C62.1355133,50.156414 61.6804326,48.7420911 61.1048179,47.4068524 C61.2735654,47.1643971 61.4426598,46.9196871 61.6122745,46.6718555 C64.5423769,42.3883042 66.8151789,37.6812366 66.8151789,37.6812366 C66.8151789,37.6812366 67.0293652,39.1241754 67.7310636,41.5105743 C68.0860751,42.7185152 68.7865594,44.0360641 69.4164577,45.3284655 C66.6613464,47.5671019 64.9527126,50.1682072 64.359408,51.8747599 C63.2624624,55.0306683 64.1216353,56.4607733 65.7331482,56.7863017 C66.4631157,56.9338907 67.4939845,56.599344 68.2695642,56.2710407 C69.2345295,55.9510621 70.3940835,55.4181113 71.4771547,54.6220669 C73.3358056,53.2556107 75.1228299,51.3421559 75.0151298,48.7530172 C74.9658756,47.5742125 74.6462438,46.4042527 74.212495,45.280252 C76.5479054,44.3074823 79.57166,43.7665536 83.4230233,44.216258 C91.6852356,45.1810499 93.3061137,50.3399031 92.9963675,52.4991084 C92.6864478,54.6584872 90.9533604,55.8452697 90.3739302,56.2037498 C89.7946735,56.5620565 89.6177748,56.6864059 89.6665087,56.9529681 C89.7369213,57.340411 90.0048709,57.325496 90.4987999,57.2422496 C91.178993,57.1274388 94.837502,55.4859224 94.9941094,51.5003242 C95.1930338,46.4403262 90.3451408,40.8822368 81.7579205,40.9280224 L81.7579205,40.9280224 Z" id="Fill-1" fill="#BF5F8B"></path>
        </g>
    </g>
</svg>